<svg class="border shadow-md" viewBox="0 0 1202.08 676.17" style="width: 1202.08px; height: 676.17px;" xmlns="http://www.w3.org/2000/svg" preserveAspectRatio="none"><rect class="bg" id="bg" x="0" y="0" width="1202.08" height="676.17" fill="#ffffff"></rect><path d="M 0 -67.61699999999999 L 0 -67.62
                L 115.00 -33.81
                L 240.416 -67.62 L 240.416 -67.62
                L 383.42 -13.62
                L 480.832 -67.62 L 480.832 -67.62
                L 577.83 -7.62
                L 721.248 -67.62 L 721.248 -67.62
                L 801.39 -10.62
                L 961.664 -67.62 L 961.664 -67.62
                L 1041.80 -33.81
                L 1202.08 -67.62 L 1202.08 -67.62
                L 1282.22 -33.81
                L 1442.4959999999999 -67.62  V 676.17 H 0 V -67.62 Z" fill="#212121"></path><path d="M 0 0 L 0 0.00
                L 80.14 35.00
                L 240.416 0.00 L 240.416 0.00
                L 402.42 33.81
                L 480.832 0.00 L 480.832 0.00
                L 612.83 33.81
                L 721.248 0.00 L 721.248 0.00
                L 808.25 33.81
                L 961.664 0.00 L 961.664 0.00
                L 1111.66 33.81
                L 1202.08 0.00 L 1202.08 0.00
                L 1350.08 33.81
                L 1442.4959999999999 0.00  V 676.17 H 0 V 0.00 Z" fill="#1e1e1e"></path><path d="M 0 67.61699999999999 L 0 67.62
                L 151.00 134.62
                L 240.416 67.62 L 240.416 67.62
                L 397.42 118.62
                L 480.832 67.62 L 480.832 67.62
                L 560.97 101.43
                L 721.248 67.62 L 721.248 67.62
                L 801.39 101.43
                L 961.664 67.62 L 961.664 67.62
                L 1041.80 126.62
                L 1202.08 67.62 L 1202.08 67.62
                L 1346.08 101.43
                L 1442.4959999999999 67.62  V 676.17 H 0 V 67.62 Z" fill="#1b1b1b"></path><path d="M 0 135.23399999999998 L 0 135.23
                L 148.00 173.23
                L 240.416 135.23 L 240.416 135.23
                L 384.42 169.04
                L 480.832 135.23 L 480.832 135.23
                L 606.83 194.23
                L 721.248 135.23 L 721.248 135.23
                L 837.25 173.23
                L 961.664 135.23 L 961.664 135.23
                L 1041.80 169.04
                L 1202.08 135.23 L 1202.08 135.23
                L 1282.22 169.04
                L 1442.4959999999999 135.23  V 676.17 H 0 V 135.23 Z" fill="#181818"></path><path d="M 0 202.85099999999997 L 0 202.85
                L 80.14 240.85
                L 240.416 202.85 L 240.416 202.85
                L 336.42 236.66
                L 480.832 202.85 L 480.832 202.85
                L 564.83 236.66
                L 721.248 202.85 L 721.248 202.85
                L 801.39 236.66
                L 961.664 202.85 L 961.664 202.85
                L 1136.66 236.66
                L 1202.08 202.85 L 1202.08 202.85
                L 1293.08 236.66
                L 1442.4959999999999 202.85  V 676.17 H 0 V 202.85 Z" fill="#151515"></path><path d="M 0 270.46799999999996 L 0 270.47
                L 122.00 304.47
                L 240.416 270.47 L 240.416 270.47
                L 320.55 310.47
                L 480.832 270.47 L 480.832 270.47
                L 639.83 304.28
                L 721.248 270.47 L 721.248 270.47
                L 819.25 325.47
                L 961.664 270.47 L 961.664 270.47
                L 1056.66 304.28
                L 1202.08 270.47 L 1202.08 270.47
                L 1296.08 319.47
                L 1442.4959999999999 270.47  V 676.17 H 0 V 270.47 Z" fill="#121212"></path><path d="M 0 338.0849999999999 L 0 338.08
                L 138.00 389.08
                L 240.416 338.08 L 240.416 338.08
                L 320.55 386.08
                L 480.832 338.08 L 480.832 338.08
                L 560.97 371.89
                L 721.248 338.08 L 721.248 338.08
                L 868.25 371.89
                L 961.664 338.08 L 961.664 338.08
                L 1041.80 389.08
                L 1202.08 338.08 L 1202.08 338.08
                L 1289.08 371.89
                L 1442.4959999999999 338.08  V 676.17 H 0 V 338.08 Z" fill="#0f0f0f"></path><path d="M 0 405.70199999999994 L 0 405.70
                L 80.14 440.70
                L 240.416 405.70 L 240.416 405.70
                L 375.42 439.51
                L 480.832 405.70 L 480.832 405.70
                L 560.97 460.70
                L 721.248 405.70 L 721.248 405.70
                L 801.39 439.51
                L 961.664 405.70 L 961.664 405.70
                L 1041.80 463.70
                L 1202.08 405.70 L 1202.08 405.70
                L 1282.22 439.51
                L 1442.4959999999999 405.70  V 676.17 H 0 V 405.70 Z" fill="#0c0c0c"></path><path d="M 0 473.31899999999996 L 0 473.32
                L 84.00 507.13
                L 240.416 473.32 L 240.416 473.32
                L 391.42 534.32
                L 480.832 473.32 L 480.832 473.32
                L 602.83 510.32
                L 721.248 473.32 L 721.248 473.32
                L 801.39 507.13
                L 961.664 473.32 L 961.664 473.32
                L 1081.66 507.13
                L 1202.08 473.32 L 1202.08 473.32
                L 1359.08 507.13
                L 1442.4959999999999 473.32  V 676.17 H 0 V 473.32 Z" fill="#090909"></path><path d="M 0 540.9359999999999 L 0 540.94
                L 116.00 603.94
                L 240.416 540.94 L 240.416 540.94
                L 320.55 591.94
                L 480.832 540.94 L 480.832 540.94
                L 560.97 581.94
                L 721.248 540.94 L 721.248 540.94
                L 843.25 574.74
                L 961.664 540.94 L 961.664 540.94
                L 1094.66 574.74
                L 1202.08 540.94 L 1202.08 540.94
                L 1282.22 574.74
                L 1442.4959999999999 540.94  V 676.17 H 0 V 540.94 Z" fill="#060606"></path><path d="M 0 608.5529999999999 L 0 608.55
                L 161.00 642.36
                L 240.416 608.55 L 240.416 608.55
                L 320.55 642.36
                L 480.832 608.55 L 480.832 608.55
                L 615.83 648.55
                L 721.248 608.55 L 721.248 608.55
                L 817.25 642.36
                L 961.664 608.55 L 961.664 608.55
                L 1058.66 660.55
                L 1202.08 608.55 L 1202.08 608.55
                L 1346.08 672.55
                L 1442.4959999999999 608.55  V 676.17 H 0 V 608.55 Z" fill="#030303"></path></svg>