<svg class="border shadow-md" viewBox="0 0 1202.08 676.17" style="width: 1202.08px; height: 676.17px;" xmlns="http://www.w3.org/2000/svg" preserveAspectRatio="none"><rect class="bg" id="bg" x="0" y="0" width="1202.08" height="676.17" fill="#ffffff"/><path d="M 0 -67.61699999999999 L 0 -67.62&#10;                L 138.00 -13.62&#10;                L 240.416 -67.62 L 240.416 -67.62&#10;                L 387.42 -33.81&#10;                L 480.832 -67.62 L 480.832 -67.62&#10;                L 621.83 -0.62&#10;                L 721.248 -67.62 L 721.248 -67.62&#10;                L 889.25 -33.81&#10;                L 961.664 -67.62 L 961.664 -67.62&#10;                L 1135.66 -5.62&#10;                L 1202.08 -67.62 L 1202.08 -67.62&#10;                L 1282.22 -25.62&#10;                L 1442.4959999999999 -67.62  V 676.17 H 0 V -67.62 Z" fill="#202020"/><path d="M 0 0 L 0 0.00&#10;                L 80.14 45.00&#10;                L 240.416 0.00 L 240.416 0.00&#10;                L 320.55 59.00&#10;                L 480.832 0.00 L 480.832 0.00&#10;                L 560.97 33.81&#10;                L 721.248 0.00 L 721.248 0.00&#10;                L 801.39 41.00&#10;                L 961.664 0.00 L 961.664 0.00&#10;                L 1069.66 41.00&#10;                L 1202.08 0.00 L 1202.08 0.00&#10;                L 1351.08 33.81&#10;                L 1442.4959999999999 0.00  V 676.17 H 0 V 0.00 Z" fill="#1d1d1d"/><path d="M 0 67.61699999999999 L 0 67.62&#10;                L 80.14 112.62&#10;                L 240.416 67.62 L 240.416 67.62&#10;                L 320.55 101.43&#10;                L 480.832 67.62 L 480.832 67.62&#10;                L 560.97 130.62&#10;                L 721.248 67.62 L 721.248 67.62&#10;                L 807.25 129.62&#10;                L 961.664 67.62 L 961.664 67.62&#10;                L 1041.80 101.43&#10;                L 1202.08 67.62 L 1202.08 67.62&#10;                L 1282.22 101.43&#10;                L 1442.4959999999999 67.62  V 676.17 H 0 V 67.62 Z" fill="#1a1a1a"/><path d="M 0 135.23399999999998 L 0 135.23&#10;                L 155.00 169.04&#10;                L 240.416 135.23 L 240.416 135.23&#10;                L 320.55 179.23&#10;                L 480.832 135.23 L 480.832 135.23&#10;                L 560.97 189.23&#10;                L 721.248 135.23 L 721.248 135.23&#10;                L 801.39 199.23&#10;                L 961.664 135.23 L 961.664 135.23&#10;                L 1041.80 169.04&#10;                L 1202.08 135.23 L 1202.08 135.23&#10;                L 1282.22 169.04&#10;                L 1442.4959999999999 135.23  V 676.17 H 0 V 135.23 Z" fill="#171717"/><path d="M 0 202.85099999999997 L 0 202.85&#10;                L 80.14 236.66&#10;                L 240.416 202.85 L 240.416 202.85&#10;                L 320.55 256.85&#10;                L 480.832 202.85 L 480.832 202.85&#10;                L 569.83 255.85&#10;                L 721.248 202.85 L 721.248 202.85&#10;                L 877.25 257.85&#10;                L 961.664 202.85 L 961.664 202.85&#10;                L 1118.66 236.66&#10;                L 1202.08 202.85 L 1202.08 202.85&#10;                L 1282.22 243.85&#10;                L 1442.4959999999999 202.85  V 676.17 H 0 V 202.85 Z" fill="#141414"/><path d="M 0 270.46799999999996 L 0 270.47&#10;                L 164.00 304.28&#10;                L 240.416 270.47 L 240.416 270.47&#10;                L 320.55 304.28&#10;                L 480.832 270.47 L 480.832 270.47&#10;                L 560.97 304.28&#10;                L 721.248 270.47 L 721.248 270.47&#10;                L 892.25 322.47&#10;                L 961.664 270.47 L 961.664 270.47&#10;                L 1041.80 335.47&#10;                L 1202.08 270.47 L 1202.08 270.47&#10;                L 1307.08 304.28&#10;                L 1442.4959999999999 270.47  V 676.17 H 0 V 270.47 Z" fill="#111111"/><path d="M 0 338.0849999999999 L 0 338.08&#10;                L 164.00 371.89&#10;                L 240.416 338.08 L 240.416 338.08&#10;                L 320.55 397.08&#10;                L 480.832 338.08 L 480.832 338.08&#10;                L 640.83 371.89&#10;                L 721.248 338.08 L 721.248 338.08&#10;                L 857.25 371.89&#10;                L 961.664 338.08 L 961.664 338.08&#10;                L 1112.66 371.89&#10;                L 1202.08 338.08 L 1202.08 338.08&#10;                L 1282.22 400.08&#10;                L 1442.4959999999999 338.08  V 676.17 H 0 V 338.08 Z" fill="#0e0e0e"/><path d="M 0 405.70199999999994 L 0 405.70&#10;                L 80.14 447.70&#10;                L 240.416 405.70 L 240.416 405.70&#10;                L 320.55 452.70&#10;                L 480.832 405.70 L 480.832 405.70&#10;                L 621.83 439.51&#10;                L 721.248 405.70 L 721.248 405.70&#10;                L 801.39 439.70&#10;                L 961.664 405.70 L 961.664 405.70&#10;                L 1041.80 455.70&#10;                L 1202.08 405.70 L 1202.08 405.70&#10;                L 1295.08 449.70&#10;                L 1442.4959999999999 405.70  V 676.17 H 0 V 405.70 Z" fill="#0b0b0b"/><path d="M 0 473.31899999999996 L 0 473.32&#10;                L 117.00 507.13&#10;                L 240.416 473.32 L 240.416 473.32&#10;                L 320.55 507.13&#10;                L 480.832 473.32 L 480.832 473.32&#10;                L 562.83 507.13&#10;                L 721.248 473.32 L 721.248 473.32&#10;                L 850.25 507.13&#10;                L 961.664 473.32 L 961.664 473.32&#10;                L 1045.66 524.32&#10;                L 1202.08 473.32 L 1202.08 473.32&#10;                L 1321.08 528.32&#10;                L 1442.4959999999999 473.32  V 676.17 H 0 V 473.32 Z" fill="#080808"/><path d="M 0 540.9359999999999 L 0 540.94&#10;                L 80.14 574.74&#10;                L 240.416 540.94 L 240.416 540.94&#10;                L 409.42 579.94&#10;                L 480.832 540.94 L 480.832 540.94&#10;                L 560.97 574.74&#10;                L 721.248 540.94 L 721.248 540.94&#10;                L 801.39 574.74&#10;                L 961.664 540.94 L 961.664 540.94&#10;                L 1041.80 596.94&#10;                L 1202.08 540.94 L 1202.08 540.94&#10;                L 1365.08 596.94&#10;                L 1442.4959999999999 540.94  V 676.17 H 0 V 540.94 Z" fill="#050505"/><path d="M 0 608.5529999999999 L 0 608.55&#10;                L 88.00 642.36&#10;                L 240.416 608.55 L 240.416 608.55&#10;                L 386.42 642.36&#10;                L 480.832 608.55 L 480.832 608.55&#10;                L 578.83 642.36&#10;                L 721.248 608.55 L 721.248 608.55&#10;                L 801.39 642.36&#10;                L 961.664 608.55 L 961.664 608.55&#10;                L 1041.80 642.36&#10;                L 1202.08 608.55 L 1202.08 608.55&#10;                L 1282.22 672.55&#10;                L 1442.4959999999999 608.55  V 676.17 H 0 V 608.55 Z" fill="#020202"/></svg>