<svg class="border shadow-md" viewBox="0 0 1202.08 676.17" style="width: 1202.08px; height: 676.17px;" xmlns="http://www.w3.org/2000/svg" preserveAspectRatio="none"><rect class="bg" id="bg" x="0" y="0" width="1202.08" height="676.17" fill="#ffffff"/><path d="M 0 -67.61699999999999 L 0 -67.62&#10;                L 158.00 -18.62&#10;                L 240.416 -67.62 L 240.416 -67.62&#10;                L 320.55 -33.81&#10;                L 480.832 -67.62 L 480.832 -67.62&#10;                L 639.83 -2.62&#10;                L 721.248 -67.62 L 721.248 -67.62&#10;                L 801.39 -27.62&#10;                L 961.664 -67.62 L 961.664 -67.62&#10;                L 1057.66 -33.62&#10;                L 1202.08 -67.62 L 1202.08 -67.62&#10;                L 1325.08 -33.81&#10;                L 1442.4959999999999 -67.62  V 676.17 H 0 V -67.62 Z" fill="#161616"/><path d="M 0 0 L 0 0.00&#10;                L 80.14 42.00&#10;                L 240.416 0.00 L 240.416 0.00&#10;                L 352.42 33.81&#10;                L 480.832 0.00 L 480.832 0.00&#10;                L 560.97 55.00&#10;                L 721.248 0.00 L 721.248 0.00&#10;                L 801.39 53.00&#10;                L 961.664 0.00 L 961.664 0.00&#10;                L 1041.80 60.00&#10;                L 1202.08 0.00 L 1202.08 0.00&#10;                L 1345.08 55.00&#10;                L 1442.4959999999999 0.00  V 676.17 H 0 V 0.00 Z" fill="#141414"/><path d="M 0 67.61699999999999 L 0 67.62&#10;                L 80.14 116.62&#10;                L 240.416 67.62 L 240.416 67.62&#10;                L 340.42 121.62&#10;                L 480.832 67.62 L 480.832 67.62&#10;                L 658.83 102.62&#10;                L 721.248 67.62 L 721.248 67.62&#10;                L 801.39 133.62&#10;                L 961.664 67.62 L 961.664 67.62&#10;                L 1069.66 105.62&#10;                L 1202.08 67.62 L 1202.08 67.62&#10;                L 1282.22 101.43&#10;                L 1442.4959999999999 67.62  V 676.17 H 0 V 67.62 Z" fill="#121212"/><path d="M 0 135.23399999999998 L 0 135.23&#10;                L 136.00 195.23&#10;                L 240.416 135.23 L 240.416 135.23&#10;                L 396.42 201.23&#10;                L 480.832 135.23 L 480.832 135.23&#10;                L 572.83 193.23&#10;                L 721.248 135.23 L 721.248 135.23&#10;                L 822.25 185.23&#10;                L 961.664 135.23 L 961.664 135.23&#10;                L 1041.80 169.04&#10;                L 1202.08 135.23 L 1202.08 135.23&#10;                L 1379.08 182.23&#10;                L 1442.4959999999999 135.23  V 676.17 H 0 V 135.23 Z" fill="#101010"/><path d="M 0 202.85099999999997 L 0 202.85&#10;                L 80.14 236.66&#10;                L 240.416 202.85 L 240.416 202.85&#10;                L 368.42 243.85&#10;                L 480.832 202.85 L 480.832 202.85&#10;                L 560.97 259.85&#10;                L 721.248 202.85 L 721.248 202.85&#10;                L 801.39 236.66&#10;                L 961.664 202.85 L 961.664 202.85&#10;                L 1041.80 236.66&#10;                L 1202.08 202.85 L 1202.08 202.85&#10;                L 1342.08 236.66&#10;                L 1442.4959999999999 202.85  V 676.17 H 0 V 202.85 Z" fill="#0e0e0e"/><path d="M 0 270.46799999999996 L 0 270.47&#10;                L 80.14 334.47&#10;                L 240.416 270.47 L 240.416 270.47&#10;                L 320.55 325.47&#10;                L 480.832 270.47 L 480.832 270.47&#10;                L 560.97 304.28&#10;                L 721.248 270.47 L 721.248 270.47&#10;                L 875.25 304.47&#10;                L 961.664 270.47 L 961.664 270.47&#10;                L 1047.66 329.47&#10;                L 1202.08 270.47 L 1202.08 270.47&#10;                L 1346.08 304.28&#10;                L 1442.4959999999999 270.47  V 676.17 H 0 V 270.47 Z" fill="#0c0c0c"/><path d="M 0 338.0849999999999 L 0 338.08&#10;                L 80.14 400.08&#10;                L 240.416 338.08 L 240.416 338.08&#10;                L 340.42 373.08&#10;                L 480.832 338.08 L 480.832 338.08&#10;                L 608.83 373.08&#10;                L 721.248 338.08 L 721.248 338.08&#10;                L 801.39 371.89&#10;                L 961.664 338.08 L 961.664 338.08&#10;                L 1070.66 371.89&#10;                L 1202.08 338.08 L 1202.08 338.08&#10;                L 1282.22 371.89&#10;                L 1442.4959999999999 338.08  V 676.17 H 0 V 338.08 Z" fill="#0a0a0a"/><path d="M 0 405.70199999999994 L 0 405.70&#10;                L 80.14 439.51&#10;                L 240.416 405.70 L 240.416 405.70&#10;                L 332.42 439.51&#10;                L 480.832 405.70 L 480.832 405.70&#10;                L 560.97 440.70&#10;                L 721.248 405.70 L 721.248 405.70&#10;                L 852.25 450.70&#10;                L 961.664 405.70 L 961.664 405.70&#10;                L 1082.66 472.70&#10;                L 1202.08 405.70 L 1202.08 405.70&#10;                L 1282.22 463.70&#10;                L 1442.4959999999999 405.70  V 676.17 H 0 V 405.70 Z" fill="#080808"/><path d="M 0 473.31899999999996 L 0 473.32&#10;                L 80.14 507.13&#10;                L 240.416 473.32 L 240.416 473.32&#10;                L 357.42 507.13&#10;                L 480.832 473.32 L 480.832 473.32&#10;                L 560.97 520.32&#10;                L 721.248 473.32 L 721.248 473.32&#10;                L 863.25 507.13&#10;                L 961.664 473.32 L 961.664 473.32&#10;                L 1093.66 539.32&#10;                L 1202.08 473.32 L 1202.08 473.32&#10;                L 1282.22 507.13&#10;                L 1442.4959999999999 473.32  V 676.17 H 0 V 473.32 Z" fill="#060606"/><path d="M 0 540.9359999999999 L 0 540.94&#10;                L 163.00 580.94&#10;                L 240.416 540.94 L 240.416 540.94&#10;                L 382.42 574.74&#10;                L 480.832 540.94 L 480.832 540.94&#10;                L 620.83 574.94&#10;                L 721.248 540.94 L 721.248 540.94&#10;                L 801.39 574.74&#10;                L 961.664 540.94 L 961.664 540.94&#10;                L 1041.80 574.74&#10;                L 1202.08 540.94 L 1202.08 540.94&#10;                L 1282.22 574.74&#10;                L 1442.4959999999999 540.94  V 676.17 H 0 V 540.94 Z" fill="#040404"/><path d="M 0 608.5529999999999 L 0 608.55&#10;                L 109.00 642.36&#10;                L 240.416 608.55 L 240.416 608.55&#10;                L 401.42 642.36&#10;                L 480.832 608.55 L 480.832 608.55&#10;                L 560.97 670.55&#10;                L 721.248 608.55 L 721.248 608.55&#10;                L 801.39 672.55&#10;                L 961.664 608.55 L 961.664 608.55&#10;                L 1041.80 652.55&#10;                L 1202.08 608.55 L 1202.08 608.55&#10;                L 1282.22 674.55&#10;                L 1442.4959999999999 608.55  V 676.17 H 0 V 608.55 Z" fill="#020202"/></svg>